<mxfile host="app.diagrams.net" modified="2023-04-20T15:21:17.821Z" agent="Mozilla/5.0 (X11; Linux x86_64) AppleWebKit/537.36 (KHTML, like Gecko) Chrome/112.0.0.0 Safari/537.36" version="21.2.1" etag="crLUpNfS-7VSASJGYnNt" type="github">
  <diagram name="Page-1" id="K5iDn-rtC97vS6ZuOBSU">
    <mxGraphModel>
      <root>
        <mxCell id="0" />
        <mxCell id="1" parent="0" />
      </root>
    </mxGraphModel>
  </diagram>
</mxfile>
